<?xml version="1.0" standalone="no"?>
<!DOCTYPE svg PUBLIC "-//W3C//DTD SVG 20010904//EN"
 "http://www.w3.org/TR/2001/REC-SVG-20010904/DTD/svg10.dtd">
<svg version="1.0" xmlns="http://www.w3.org/2000/svg"
 width="512.000000pt" height="512.000000pt" viewBox="0 0 512.000000 512.000000"
 preserveAspectRatio="xMidYMid meet">
<metadata>
Created by potrace 1.14, written by Peter Selinger 2001-2017
</metadata>
<g transform="translate(0.000000,512.000000) scale(0.100000,-0.100000)"
fill="#000000" stroke="none">
<path d="M335 5107 c-16 -7 -32 -14 -35 -17 -3 -3 -9 -5 -15 -5 -17 -1 -85
-38 -85 -47 0 -4 -7 -8 -15 -8 -9 0 -18 -7 -21 -15 -4 -8 -10 -13 -14 -10 -5
3 -17 -8 -26 -24 -10 -17 -22 -27 -27 -24 -6 3 -7 2 -4 -4 4 -5 -2 -19 -13
-30 -10 -12 -16 -24 -13 -27 4 -3 1 -6 -6 -6 -7 0 -10 -4 -7 -9 3 -5 -1 -11
-9 -15 -8 -3 -12 -11 -9 -19 3 -8 -2 -20 -10 -27 -10 -8 -14 -21 -10 -36 4
-15 2 -24 -5 -24 -8 0 -11 -594 -11 -2191 0 -1590 3 -2188 11 -2183 8 5 8 1 0
-14 -8 -14 -8 -23 -1 -27 6 -4 10 -12 9 -18 -3 -18 22 -77 32 -77 4 0 5 -7 2
-17 -4 -11 -3 -14 5 -9 7 4 12 1 12 -7 0 -7 9 -23 20 -35 11 -12 20 -26 20
-31 0 -5 9 -13 20 -16 11 -3 20 -13 20 -21 0 -8 4 -12 10 -9 5 3 10 -1 10 -10
0 -9 4 -13 10 -10 5 3 10 1 10 -5 0 -6 4 -8 10 -5 6 3 10 1 10 -5 0 -6 5 -8
10 -5 6 3 10 1 10 -5 0 -6 4 -8 10 -5 5 3 10 1 10 -5 0 -6 4 -8 10 -5 5 3 10
3 10 -2 0 -11 79 -35 91 -28 5 4 9 1 9 -4 0 -8 661 -11 2191 -11 1434 0 2188
3 2184 10 -3 5 1 7 9 4 8 -3 32 0 53 7 21 7 42 13 46 14 4 0 11 6 16 13 5 8
11 13 15 13 14 -3 64 29 69 44 4 8 11 15 17 15 11 0 70 56 70 66 0 3 -6 2 -12
-1 -7 -4 -2 3 11 14 13 12 20 21 17 21 -4 0 2 10 13 22 11 11 18 25 15 30 -3
4 0 8 6 8 6 0 8 5 5 10 -4 6 -1 17 5 25 7 8 9 15 6 15 -4 0 -2 10 5 21 9 17 8
20 -3 13 -10 -6 -11 -5 -1 7 19 23 19 4355 1 4377 -10 13 -10 14 0 8 6 -4 12
-2 12 3 0 6 -4 11 -10 11 -5 0 -9 3 -9 8 5 27 -2 52 -13 46 -6 -4 -8 -3 -5 3
7 12 -14 63 -26 63 -5 0 -5 5 -2 10 3 6 -1 13 -9 16 -9 3 -13 10 -10 15 3 5
-2 12 -10 15 -9 3 -16 10 -16 15 0 12 -32 49 -43 49 -4 0 -20 11 -34 24 -15
14 -30 23 -35 20 -4 -3 -8 0 -8 5 0 6 -7 11 -15 11 -8 0 -15 5 -15 11 0 5 -5
7 -10 4 -6 -4 -17 -2 -24 4 -7 6 -21 12 -32 14 -10 1 -24 6 -31 10 -6 4 -14 1
-16 -5 -4 -10 -6 -10 -6 -1 -1 18 -4360 17 -4406 0z"/>
</g>
</svg>
